<?xml version="1.0" standalone="no"?>
<!DOCTYPE svg PUBLIC "-//W3C//DTD SVG 20010904//EN"
 "http://www.w3.org/TR/2001/REC-SVG-20010904/DTD/svg10.dtd">
<svg version="1.0" xmlns="http://www.w3.org/2000/svg"
 width="933.000000pt" height="933.000000pt" viewBox="0 0 933.000000 933.000000"
 preserveAspectRatio="xMidYMid meet">
<metadata>
Created by potrace 1.16, written by Peter Selinger 2001-2019
</metadata>
<g transform="translate(0.000000,933.000000) scale(0.100000,-0.100000)"
fill="#000000" stroke="none">
<path d="M7244 8260 c-7 -7 -99 -10 -262 -8 -234 3 -253 2 -258 -15 -3 -9 -10
-15 -15 -12 -5 3 -6 -1 -3 -9 3 -9 -3 -32 -15 -51 -12 -20 -21 -44 -21 -54 0
-10 -11 -35 -25 -55 -14 -20 -25 -41 -25 -46 0 -10 -25 -70 -46 -112 -8 -14
-14 -33 -14 -41 0 -8 -11 -25 -24 -38 -13 -13 -22 -29 -19 -35 2 -7 -2 -28
-10 -46 -8 -18 -22 -49 -31 -70 -25 -56 -21 -82 27 -190 10 -21 17 -46 17 -57
0 -11 4 -21 10 -23 5 -1 19 -27 30 -55 28 -74 55 -143 70 -178 7 -16 12 -38
11 -47 -1 -10 3 -18 8 -18 6 0 11 -7 11 -15 0 -8 4 -15 10 -15 5 0 9 -3 8 -7
0 -5 6 -25 16 -46 9 -21 14 -42 11 -46 -6 -11 77 -21 88 -11 10 9 47 1 47 -10
0 -4 -11 -11 -25 -14 l-25 -6 6 -497 5 -497 -35 -36 c-70 -69 -356 -405 -356
-418 0 -12 169 168 274 291 54 65 102 117 106 117 7 0 16 -302 26 -951 l7
-405 -83 -136 c-45 -74 -123 -186 -172 -249 -49 -63 -151 -193 -226 -289 -134
-172 -248 -316 -280 -355 -122 -148 -124 -150 -116 -207 2 -24 1 -48 -3 -54
-5 -8 -63 -13 -163 -15 l-155 -4 -22 41 c-19 35 -25 70 -37 215 -8 96 -17 228
-21 294 -4 66 -13 217 -21 335 -14 203 -13 216 3 236 172 209 239 305 298 424
9 19 36 60 59 90 23 30 50 69 60 85 l19 30 -33 -30 -33 -30 6 32 c4 18 17 50
31 70 44 69 155 506 156 618 0 17 4 25 8 18 4 -6 5 27 3 74 -2 47 1 88 6 92 5
3 5 89 0 211 -5 113 -10 255 -10 315 -1 61 -4 90 -6 65 -4 -42 -5 -38 -22 50
-9 52 -26 128 -37 169 -11 40 -18 79 -15 87 3 8 0 14 -5 14 -6 0 -16 25 -23
55 -7 31 -16 58 -21 61 -18 12 -5 45 40 101 26 33 58 84 72 114 14 30 28 55
32 57 4 2 4 10 1 18 -3 8 0 14 6 14 6 0 8 7 5 15 -4 8 -1 15 5 15 6 0 8 7 4
16 -3 10 0 22 8 28 12 9 13 33 8 136 -4 69 -4 129 -2 133 3 5 1 19 -5 30 -16
32 -32 148 -26 177 5 20 4 22 -6 10 -10 -12 -11 -11 -7 8 3 12 1 20 -3 17 -5
-3 -12 5 -16 17 -3 13 -15 35 -25 50 -11 14 -19 33 -19 42 0 9 -4 16 -8 16 -5
0 -26 25 -47 55 -45 66 -152 175 -171 175 -8 0 -14 3 -14 8 0 7 -8 8 -195 16
-78 3 -124 1 -132 -6 -8 -6 -16 -8 -19 -5 -4 3 -16 -3 -27 -14 -11 -10 -35
-24 -52 -30 -33 -12 -107 -110 -126 -169 -16 -46 -24 -54 -40 -38 -8 8 -36 25
-64 38 -27 13 -52 26 -55 29 -3 4 -32 17 -65 29 -33 13 -69 28 -80 32 -138 58
-414 84 -575 54 -41 -8 -93 -15 -115 -17 -22 -1 -46 -8 -53 -14 -7 -7 -22 -13
-32 -13 -10 0 -22 -5 -25 -11 -4 -6 -13 -8 -21 -5 -8 3 -14 1 -14 -4 0 -6 -9
-10 -20 -10 -11 0 -20 -5 -20 -11 0 -8 -5 -8 -15 1 -12 10 -15 10 -15 -4 0
-15 -14 -20 -47 -19 -7 1 -13 -5 -13 -13 0 -8 -4 -14 -8 -14 -5 0 -34 -16 -66
-35 -32 -19 -65 -35 -74 -35 -8 0 -12 -3 -9 -7 7 -6 -21 -32 -35 -33 -5 0 -8
8 -8 19 0 54 -127 203 -186 217 -16 3 -39 12 -50 20 -13 8 -68 15 -138 18 -94
5 -124 3 -159 -11 -23 -9 -45 -21 -48 -26 -3 -5 -9 -7 -12 -5 -3 1 -19 -9 -36
-24 -17 -16 -33 -28 -35 -28 -11 0 -76 -74 -76 -85 0 -7 -7 -18 -16 -26 -22
-18 -51 -78 -96 -199 -60 -160 -74 -245 -72 -430 1 -116 20 -207 59 -282 14
-26 25 -54 25 -63 0 -8 5 -15 11 -15 6 0 32 -21 59 -47 26 -27 56 -52 65 -58
9 -5 16 -13 16 -17 -6 -38 -15 -68 -21 -68 -5 0 -6 -9 -3 -20 3 -12 0 -20 -7
-20 -7 0 -10 -6 -7 -14 3 -8 -1 -43 -9 -78 -9 -34 -18 -85 -20 -112 -3 -26
-10 -69 -16 -95 -5 -25 -12 -176 -13 -336 -4 -359 5 -433 96 -795 7 -25 15
-54 20 -65 39 -95 59 -155 59 -173 0 -12 8 -30 18 -40 10 -10 30 -45 43 -78
13 -32 32 -71 43 -86 33 -47 10 -42 -36 7 -23 26 -47 55 -52 64 -6 9 -21 25
-35 36 -14 11 -53 49 -86 85 -33 35 -71 76 -85 90 -14 14 -58 63 -99 110 -41
46 -82 91 -91 100 -27 24 -199 228 -265 314 -33 43 -75 97 -94 119 l-33 42 4
155 c5 164 7 181 23 192 6 5 5 8 -4 8 -11 0 -12 29 -6 168 4 92 11 172 17 179
6 8 6 18 0 30 -12 20 -4 203 10 220 5 7 5 13 0 17 -6 3 -7 52 -4 115 5 105 4
109 -17 116 -11 3 -21 13 -21 20 0 11 10 13 43 9 43 -6 44 -6 61 32 10 22 24
52 32 68 8 16 14 35 14 43 0 7 4 13 10 13 5 0 7 7 4 15 -4 8 -1 15 5 15 6 0
11 9 11 20 0 32 32 92 42 78 5 -8 6 -1 2 16 -4 16 -3 27 2 23 5 -3 10 6 10 19
1 13 16 47 34 76 18 29 34 62 35 73 1 11 4 21 5 23 1 1 3 5 5 10 1 4 4 14 8
22 33 85 31 131 -10 207 -13 25 -22 52 -19 59 3 8 1 14 -5 14 -6 0 -9 7 -5 15
3 9 0 15 -9 15 -8 0 -15 6 -15 13 0 6 -6 24 -14 39 -8 14 -19 43 -26 65 -7 21
-26 67 -42 102 -16 35 -27 70 -24 77 3 7 0 16 -5 20 -6 3 -19 25 -28 48 -10
23 -25 47 -33 54 -12 9 -77 12 -268 10 -213 -3 -254 -5 -260 -18 -41 -83 -80
-169 -80 -176 0 -18 -46 -104 -52 -98 -4 3 -4 -3 -1 -14 3 -13 -2 -27 -15 -37
-11 -10 -18 -25 -15 -36 3 -11 0 -19 -6 -19 -6 0 -11 -11 -11 -25 0 -14 -4
-25 -8 -25 -4 0 -16 -22 -26 -50 -10 -27 -22 -50 -27 -50 -5 0 -8 -3 -7 -7 1
-5 -2 -23 -6 -42 -6 -25 -11 -30 -17 -20 -5 8 -9 11 -9 7 0 -9 76 -210 90
-238 6 -11 15 -30 21 -41 6 -12 26 -63 44 -113 19 -50 43 -109 54 -131 12 -21
21 -48 21 -60 0 -11 9 -31 20 -45 11 -14 20 -32 20 -41 0 -12 9 -15 34 -14 18
1 38 5 43 8 12 8 53 -3 53 -13 0 -4 -12 -11 -26 -14 l-27 -7 4 -437 4 -437
-61 -6 c-63 -6 -122 -38 -123 -67 -1 -6 -10 -29 -21 -49 -11 -21 -23 -53 -26
-71 -4 -19 -13 -36 -21 -39 -10 -4 -11 -9 -2 -19 6 -7 7 -18 3 -25 -23 -38
-24 -332 -1 -355 3 -3 3 -12 0 -20 -3 -8 -1 -14 5 -14 13 0 35 -87 26 -103 -4
-7 -4 -9 1 -5 10 9 95 -159 95 -188 0 -12 6 -24 13 -27 6 -2 32 -44 56 -93 24
-49 53 -100 63 -113 16 -21 19 -44 20 -155 0 -130 7 -406 9 -416 1 -3 1 -8 0
-12 0 -4 6 -5 13 -2 8 3 32 -3 53 -13 48 -22 137 -22 178 0 42 23 62 23 44 0
-13 -16 -12 -17 3 -5 13 10 16 25 13 64 -5 66 2 76 28 39 12 -17 44 -58 70
-92 27 -33 51 -68 54 -77 4 -8 14 -23 22 -32 9 -9 54 -59 101 -111 47 -51 114
-125 150 -164 37 -38 73 -80 81 -91 26 -40 101 -129 158 -190 31 -33 68 -73
83 -90 14 -16 54 -54 88 -84 34 -30 89 -81 123 -112 33 -32 64 -58 68 -58 13
0 28 -70 22 -101 -5 -28 -7 -29 -67 -29 -83 0 -114 -11 -160 -55 l-40 -37 -2
-542 c-1 -297 1 -743 4 -989 l5 -448 379 7 c303 6 378 4 378 -6 0 -10 3 -10
15 0 12 10 83 14 273 17 141 2 337 5 435 6 146 3 177 1 177 -10 0 -8 5 -11 10
-8 6 4 8 10 6 14 -5 8 710 26 1099 27 296 1 277 -2 298 34 10 16 25 36 33 45
17 17 20 121 9 375 -10 217 -25 815 -31 1248 l-7 432 -86 0 c-47 -1 -105 -5
-128 -9 -42 -8 -43 -8 -43 18 0 14 -3 42 -6 61 -5 32 0 42 58 110 82 97 165
201 246 309 36 47 109 139 161 204 53 65 105 130 116 145 11 15 40 54 65 87
24 33 48 63 52 66 5 3 18 23 29 45 12 21 31 55 43 74 13 19 36 58 52 85 l29
50 5 -95 5 -95 44 -23 c51 -27 159 -34 185 -13 9 8 30 14 46 16 l31 2 -1 331
c-1 369 -5 341 76 454 18 26 55 87 81 135 26 49 63 113 83 143 55 82 134 244
191 390 29 74 34 97 34 175 0 69 -4 96 -17 114 -17 24 -18 23 -11 -55 7 -99
-8 -194 -48 -293 -29 -72 -48 -108 -152 -282 -29 -48 -72 -120 -96 -160 -55
-93 -112 -179 -125 -186 -16 -11 17 1186 34 1218 5 10 5 20 -1 26 -5 5 -4 129
3 321 l11 313 -22 16 c-31 21 -14 34 32 24 34 -8 38 -7 43 14 4 15 11 22 20
18 8 -3 14 0 14 6 0 6 -4 11 -10 11 -9 0 8 58 28 96 14 26 52 113 52 119 0 2
15 36 34 75 19 38 33 70 30 70 -4 0 24 75 51 135 7 17 16 39 19 50 6 16 9 17
17 5 6 -10 7 -4 2 19 -4 24 -3 32 5 27 10 -6 -5 33 -58 149 -9 22 -21 53 -24
69 -4 17 -16 43 -28 58 -11 16 -17 35 -14 43 3 8 2 15 -3 15 -7 0 -61 116 -61
133 0 4 -9 27 -21 52 -11 24 -18 49 -14 55 3 5 1 10 -5 10 -7 0 -10 7 -6 15 3
9 0 15 -8 15 -16 0 -29 27 -20 41 7 12 0 11 -12 -1z m-4689 -372 c114 -257
114 -258 101 -295 -8 -21 -55 -137 -106 -258 -51 -121 -94 -226 -97 -232 -4
-10 -59 -13 -228 -13 -166 0 -225 3 -232 13 -5 6 -56 121 -113 255 l-103 243
46 112 c90 219 172 412 180 425 7 9 58 12 223 10 l215 -3 114 -257z m4757 15
c59 -133 110 -252 113 -265 3 -15 -32 -112 -103 -283 l-108 -260 -229 0 -228
0 -35 80 c-114 265 -174 412 -174 430 0 16 200 507 219 537 2 5 102 7 221 6
l216 -3 108 -242z m-1609 172 c69 -12 87 -20 146 -65 183 -139 263 -330 265
-635 0 -131 -1 -145 -28 -215 -29 -76 -124 -232 -138 -228 -4 2 -33 57 -63
123 -135 293 -336 556 -545 713 -41 31 -79 59 -83 63 -15 11 44 118 88 158 99
91 198 115 358 86z m-2203 -61 c76 -18 130 -47 183 -101 40 -39 77 -101 77
-127 0 -8 -35 -43 -78 -79 -74 -61 -184 -183 -270 -300 -94 -127 -215 -360
-273 -526 -17 -50 -34 -91 -38 -91 -4 0 -35 26 -70 57 -108 98 -151 216 -150
413 0 350 163 676 377 755 50 18 162 18 242 -1z m1225 -25 c319 -44 657 -255
886 -554 193 -251 345 -593 413 -930 123 -603 34 -1232 -246 -1736 -156 -282
-374 -514 -614 -653 -117 -68 -263 -125 -377 -148 -138 -28 -343 -28 -478 0
-454 94 -856 461 -1086 992 -91 209 -160 463 -184 675 -19 167 -17 526 4 690
64 506 283 977 593 1276 150 145 254 218 419 293 221 100 426 129 670 95z
m-2692 -2051 c4 -46 9 -292 13 -548 7 -526 13 -498 -74 -325 -125 248 -165
361 -178 497 -8 89 21 244 67 359 33 83 49 96 125 98 l41 1 6 -82z m434 -326
c46 -71 132 -182 192 -247 25 -28 82 -90 126 -140 121 -135 310 -337 342 -365
15 -14 60 -61 98 -104 39 -44 93 -105 120 -135 28 -31 71 -83 95 -116 74 -102
151 -184 255 -274 55 -47 111 -93 124 -101 l23 -15 -7 -483 -8 -482 -128 -2
c-71 -1 -154 -2 -185 -3 l-56 0 -4 54 c-2 29 -10 61 -17 72 -8 10 -72 70 -143
134 -133 119 -261 253 -366 384 -33 42 -117 138 -186 214 -69 75 -179 206
-245 290 l-119 152 6 530 c4 292 9 572 12 623 7 106 10 106 71 14z m3059
-1996 c18 -282 19 -276 -38 -276 -16 0 -31 -1 -35 -2 -14 -5 -22 109 -32 447
-6 182 -14 354 -17 383 -6 51 -6 53 37 95 l43 42 13 -215 c6 -118 19 -331 29
-474z m-146 577 c2 -200 23 -769 30 -823 22 -165 26 -145 -28 -158 -26 -6
-141 -14 -257 -17 -189 -5 -713 -26 -1001 -40 l-110 -5 -17 35 c-14 30 -17 72
-18 253 -1 119 -4 300 -8 402 -4 102 -5 188 -4 192 2 4 36 -9 77 -27 156 -73
314 -106 506 -107 127 -1 268 21 384 59 123 40 287 128 386 207 45 36 60 43
60 29z m-1458 -126 c15 -12 17 -52 20 -391 l3 -379 -43 -12 c-40 -12 -60 -6
-48 14 3 5 6 184 7 397 1 214 3 392 6 397 4 7 25 -2 55 -26z m1642 -844 c3
-21 9 -58 12 -83 l6 -46 -66 -15 -66 -16 0 41 c0 22 3 64 6 93 7 55 12 60 70
62 29 1 32 -2 38 -36z m-1601 -110 c4 -38 9 -78 13 -90 6 -22 4 -23 -66 -23
-71 0 -72 1 -65 23 4 12 10 47 12 77 6 78 7 80 56 80 l44 0 6 -67z m1457 48
c0 -11 -87 -18 -300 -26 -850 -28 -1041 -35 -1077 -40 -23 -2 -45 0 -48 4 -7
12 75 18 390 31 138 5 360 15 495 20 477 21 540 22 540 11z m790 -113 c0 -68
3 -195 5 -283 3 -88 12 -471 21 -851 l16 -690 -21 -35 -21 -34 0 35 c0 73 -20
981 -30 1350 -16 612 -16 596 -1 614 7 9 17 16 22 16 5 0 9 -55 9 -122z
m-1339 -434 c110 -56 177 -194 200 -414 21 -202 -18 -423 -96 -538 -41 -60
-117 -114 -155 -110 -35 4 -40 56 -8 98 l23 32 0 407 c0 406 0 407 -22 435
-22 28 -32 94 -16 109 7 8 35 1 74 -19z m-111 -24 c0 -25 -8 -51 -20 -68 -20
-27 -21 -39 -18 -438 3 -408 3 -410 26 -438 24 -31 29 -75 11 -93 -17 -17 -87
11 -128 50 -108 103 -159 289 -148 541 8 187 50 322 128 411 36 40 93 74 127
75 19 0 22 -5 22 -40z m1108 28 c20 -20 15 -76 -8 -88 -19 -10 -20 -23 -22
-483 l-3 -472 -119 -3 c-78 -2 -123 1 -132 9 -20 17 -17 63 6 84 19 18 20 31
20 430 l0 411 -26 23 c-32 28 -30 70 6 88 34 17 261 18 278 1z m-1446 -35 c25
-23 23 -32 -21 -90 -21 -29 -56 -95 -77 -148 -20 -52 -43 -95 -50 -95 -20 0
-29 68 -16 117 17 63 15 101 -8 130 -25 32 -26 78 -2 92 29 18 153 13 174 -6z
m-238 -14 c13 -19 13 -26 -1 -62 -16 -38 -15 -42 15 -136 63 -194 132 -410
176 -552 25 -80 55 -158 67 -172 27 -35 22 -77 -11 -94 -39 -20 -264 -18 -284
3 -20 19 -20 31 0 69 9 18 13 42 10 60 -15 73 -250 782 -267 804 -20 24 -24
57 -11 77 11 18 38 22 169 23 114 1 123 0 137 -20z m-599 -1 c6 -22 13 -1016
6 -1026 -3 -5 -58 -13 -122 -17 -101 -6 -118 -5 -132 10 -24 24 -21 52 10 89
l26 31 -7 405 c-7 383 -8 405 -26 423 -25 22 -26 72 -2 86 26 16 242 14 247
-1z m243 -128 c3 -159 -1 -183 -29 -178 -15 2 -26 20 -42 69 -29 86 -49 115
-97 139 -36 18 -40 24 -40 59 0 21 3 41 7 45 4 4 50 5 103 4 l95 -3 3 -135z
m-85 -190 c4 -18 7 -111 5 -207 -2 -139 -6 -176 -18 -183 -22 -13 -37 5 -50
60 -6 26 -22 63 -36 81 -32 44 -32 95 1 139 14 18 28 50 31 69 8 44 31 84 47
78 6 -2 15 -18 20 -37z m1722 -155 l0 -110 -155 0 -155 0 -3 99 c-1 55 0 106
2 113 4 11 38 13 158 11 l153 -3 0 -110z m596 -175 c10 -34 11 -312 1 -327 -4
-7 -43 -13 -97 -15 l-90 -3 -3 42 c-3 38 1 45 37 78 40 37 59 81 92 213 8 36
14 43 32 40 13 -2 24 -13 28 -28z m-1990 -49 c10 -33 9 -48 -10 -102 -26 -78
-27 -115 -2 -128 24 -13 35 -55 21 -81 -9 -18 -21 -20 -99 -20 -72 0 -90 3
-95 16 -12 31 -6 49 29 84 24 25 47 66 69 126 53 139 55 144 65 144 6 0 15
-18 22 -39z m-241 -20 c5 -11 10 -84 10 -164 0 -123 -2 -146 -16 -151 -9 -3
-56 -6 -105 -6 -85 0 -89 1 -95 24 -10 40 -1 59 40 86 46 32 81 86 102 160 9
30 18 58 21 63 8 14 32 7 43 -12z"/>
<path d="M2065 8090 c-3 -5 25 -83 63 -172 38 -90 72 -173 76 -186 4 -13 12
-22 17 -20 13 4 159 345 159 370 0 17 -11 18 -154 18 -89 0 -157 -4 -161 -10z"/>
<path d="M1991 8019 c-5 -13 -39 -95 -75 -182 -36 -87 -66 -162 -66 -167 0
-13 28 -20 83 -20 63 0 80 -10 75 -41 -3 -23 -7 -24 -80 -27 -53 -2 -78 -7
-78 -15 1 -20 154 -360 163 -361 10 -1 167 390 167 414 0 19 -157 401 -170
414 -6 6 -13 0 -19 -15z"/>
<path d="M2342 7830 l-81 -211 62 -162 c35 -89 71 -183 81 -209 10 -27 21 -48
26 -48 11 0 180 394 180 421 0 25 -169 419 -180 419 -4 0 -43 -95 -88 -210z"/>
<path d="M2137 7346 c-43 -102 -77 -187 -77 -190 0 -3 72 -6 160 -6 130 0 160
3 160 14 0 22 -146 360 -157 363 -5 2 -44 -80 -86 -181z"/>
<path d="M6830 8083 c0 -27 144 -365 155 -365 13 0 167 360 160 373 -4 5 -74
9 -161 9 -140 0 -154 -2 -154 -17z"/>
<path d="M6687 7858 c-85 -207 -85 -208 7 -208 62 0 79 -10 74 -41 -3 -22 -8
-24 -78 -29 -62 -4 -75 -8 -72 -21 5 -32 148 -351 158 -351 12 -1 164 380 164
412 0 27 -160 420 -170 420 -4 0 -41 -82 -83 -182z"/>
<path d="M7176 8009 c-36 -80 -146 -371 -146 -387 0 -21 146 -402 160 -416 6
-6 17 9 31 40 75 172 147 342 153 360 4 15 -19 81 -80 220 -47 110 -90 203
-95 208 -4 5 -15 -6 -23 -25z"/>
<path d="M6976 7521 c-15 -24 -146 -345 -146 -357 0 -11 29 -14 160 -14 88 0
160 3 160 8 0 14 -155 371 -162 372 -4 0 -9 -4 -12 -9z"/>
<path d="M5190 6429 c-145 -15 -313 -39 -352 -49 -43 -12 -88 -61 -88 -96 0
-14 11 -36 25 -49 31 -32 56 -32 294 0 102 13 252 29 333 36 173 14 192 20
196 72 4 44 -29 81 -79 91 -42 8 -224 5 -329 -5z"/>
<path d="M3710 6310 c-139 -9 -182 -19 -217 -52 -34 -32 -32 -89 4 -118 25
-20 37 -21 123 -17 225 11 573 38 612 46 70 16 89 66 44 118 l-24 28 -209 1
c-114 1 -264 -2 -333 -6z"/>
<path d="M5125 5949 c-75 -36 -99 -186 -40 -245 31 -31 101 -33 137 -4 113 88
26 309 -97 249z"/>
<path d="M3861 5833 c-83 -43 -95 -170 -23 -245 33 -36 74 -36 118 -3 44 34
70 115 55 173 -20 73 -87 107 -150 75z"/>
<path d="M4515 5566 c-11 -7 -40 -17 -64 -21 -190 -32 -335 -231 -318 -437 8
-96 36 -144 100 -174 98 -45 193 -27 276 52 l54 53 46 -38 c68 -57 89 -65 168
-65 66 -1 74 1 102 28 17 16 42 60 57 97 22 57 26 78 22 140 -7 107 -38 179
-108 248 -68 67 -131 101 -191 101 -24 0 -53 7 -63 15 -25 19 -56 19 -81 1z
m244 -79 c112 -67 173 -173 175 -302 0 -60 -4 -79 -32 -133 -26 -50 -41 -67
-69 -79 -71 -29 -170 3 -237 78 -35 38 -40 40 -49 24 -25 -45 -89 -102 -125
-113 -54 -16 -146 -15 -188 3 -88 36 -101 226 -26 371 41 79 160 167 245 181
28 4 34 1 50 -26 29 -50 53 -57 82 -25 14 15 25 33 25 40 0 34 75 25 149 -19z"/>
</g>
</svg>
